<?xml version="1.0" standalone="no"?><?xml-stylesheet type="text/css" href="https://www.processon.com/themes/default/mind/icons/icons.css" ?><!DOCTYPE svg PUBLIC "-//W3C//DTD SVG 1.1//EN" "http://www.w3.org/Graphics/SVG/1.1/DTD/svg11.dtd">
<svg xmlns="http://www.w3.org/2000/svg" version="1.1" xlink="http://www.w3.org/1999/xlink" id="mind-svg-con" width="1155px" height="1491.21875px" style="position: absolute; left: 0px; top: 0px; width: 1155px; height: 1491.22px; background: rgb(248, 248, 248); z-index: 999;"><defs></defs><g id="svgbackgroundid"><defs></defs><rect x="0" y="0" width="1155" height="1491.21875" fill="#f8f8f8"></rect></g><g transform="translate(-9888, -9193)" id="sdjakdjak3"><defs></defs><g class="svg-topic-con" transform="translate(0.5,0.5)"><path part="right" sub="true" id="line_774be1ace229" d="M 10000 9938 L 10000 9315 A 8 8 0 0 1 10008 9307 L 10142 9307" stroke="rgb(160,160,160)" fill="none" stroke-width="1"></path><path part="right" sub="true" id="line_47e2803952ae" d="M 10000 9938 L 10000 10028 A 8 8 0 0 0 10008 10036 L 10142 10036" stroke="rgb(160,160,160)" fill="none" stroke-width="1"></path></g><g class="svg-connection-con" transform="translate(0.5,0.5)"></g><g class="svg-freesums-con" transform="translate(0.5,0.5)"></g><g class="svg-freebos-con" transform="translate(0.5,0.5)"></g></g><g id="47e2803952ae"><rect x="254" y="821.71875" rx="5px" ry="5px" width="103" height="42" style="fill: #ffffff; stroke:rgb(157,157,157);stroke-width:1px;"></rect><g><text text-anchor="start" align="top" anchor="start" font-family="微软雅黑" font-size="17px" font-weight="normal" fill="rgb(68, 68, 68)"><tspan x="267" y="850.528125"><tspan>worker</tspan></tspan></text></g><path d="M906.372741 0.018963C960.777481 0.075852 1005.131852 44.126815 1005.131852 98.49363L1005.131852 98.49363 1005.131852 98.49363 1005.131852 925.525333C1005.131852 979.892148 960.777481 1024 906.221037 1024L117.835852 1024C63.16563 1024 18.868148 979.892148 18.868148 925.525333L18.868148 98.49363C18.868148 44.126815 63.222519 0.018963 117.835852 0.018963M925.980444 74.088296 93.790815 74.088296 93.790815 945.170963 925.866667 945.170963 925.904593 945.170963 925.904593 74.088296 925.980444 74.088296 925.980444 74.088296ZM217.353481 338.640593 449.744593 338.640593C454.428444 338.640593 458.258963 334.829037 458.258963 330.145185L458.258963 264.438519 458.258963 263.338667C458.258963 258.673778 454.428444 254.748444 449.85837 254.748444L217.353481 254.748444C212.612741 254.748444 208.839111 258.673778 208.839111 263.338667L208.839111 330.145185C208.839111 334.829037 212.612741 338.640593 217.353481 338.640593L217.353481 338.640593 217.353481 338.640593ZM217.353481 554.799407 673.526519 554.799407C678.229333 554.799407 682.040889 550.987852 682.040889 546.304L682.040889 480.57837C682.154667 480.161185 682.154667 479.819852 682.154667 479.440593 682.154667 474.775704 678.381037 470.964148 673.754074 470.964148L217.353481 470.964148C212.612741 470.964148 208.839111 474.775704 208.839111 479.440593L208.839111 546.360889C208.839111 550.930963 212.612741 554.799407 217.353481 554.799407L217.353481 554.799407 217.353481 554.799407ZM217.353481 770.901333 806.532741 770.901333C811.178667 770.901333 815.047111 767.089778 815.047111 762.405926L815.047111 696.699259C815.104 696.263111 815.104 695.940741 815.104 695.542519 815.104 690.87763 811.33037 687.066074 806.760296 687.066074L217.353481 687.066074C212.612741 687.066074 208.839111 690.87763 208.839111 695.542519L208.839111 762.462815C208.839111 767.089778 212.612741 770.901333 217.353481 770.901333L217.353481 770.901333 217.353481 770.901333Z" fill="rgb(68,68,68)" transform="translate(327.8125, 836.328125) scale(0.013671875)"></path></g><g id="7c4006649a4b"><rect x="386.8125" y="277.453125" rx="1px" ry="1px" width="154" height="26" style="fill: transparent; stroke:none;"></rect><g><text text-anchor="start" align="top" anchor="start" font-family="微软雅黑" font-size="13px" font-weight="normal" fill="rgb(68, 68, 68)"><tspan x="395.8125" y="293.89375"><tspan>UnixStreamSocket</tspan></tspan></text></g><path d="M906.372741 0.018963C960.777481 0.075852 1005.131852 44.126815 1005.131852 98.49363L1005.131852 98.49363 1005.131852 98.49363 1005.131852 925.525333C1005.131852 979.892148 960.777481 1024 906.221037 1024L117.835852 1024C63.16563 1024 18.868148 979.892148 18.868148 925.525333L18.868148 98.49363C18.868148 44.126815 63.222519 0.018963 117.835852 0.018963M925.980444 74.088296 93.790815 74.088296 93.790815 945.170963 925.866667 945.170963 925.904593 945.170963 925.904593 74.088296 925.980444 74.088296 925.980444 74.088296ZM217.353481 338.640593 449.744593 338.640593C454.428444 338.640593 458.258963 334.829037 458.258963 330.145185L458.258963 264.438519 458.258963 263.338667C458.258963 258.673778 454.428444 254.748444 449.85837 254.748444L217.353481 254.748444C212.612741 254.748444 208.839111 258.673778 208.839111 263.338667L208.839111 330.145185C208.839111 334.829037 212.612741 338.640593 217.353481 338.640593L217.353481 338.640593 217.353481 338.640593ZM217.353481 554.799407 673.526519 554.799407C678.229333 554.799407 682.040889 550.987852 682.040889 546.304L682.040889 480.57837C682.154667 480.161185 682.154667 479.819852 682.154667 479.440593 682.154667 474.775704 678.381037 470.964148 673.754074 470.964148L217.353481 470.964148C212.612741 470.964148 208.839111 474.775704 208.839111 479.440593L208.839111 546.360889C208.839111 550.930963 212.612741 554.799407 217.353481 554.799407L217.353481 554.799407 217.353481 554.799407ZM217.353481 770.901333 806.532741 770.901333C811.178667 770.901333 815.047111 767.089778 815.047111 762.405926L815.047111 696.699259C815.104 696.263111 815.104 695.940741 815.104 695.542519 815.104 690.87763 811.33037 687.066074 806.760296 687.066074L217.353481 687.066074C212.612741 687.066074 208.839111 690.87763 208.839111 695.542519L208.839111 762.462815C208.839111 767.089778 212.612741 770.901333 217.353481 770.901333L217.353481 770.901333 217.353481 770.901333Z" fill="rgb(68,68,68)" transform="translate(515.796875, 282.09375) scale(0.013671875)"></path></g><g id="c375410efc0c"><rect x="570.796875" y="224" rx="1px" ry="1px" width="139" height="26" style="fill: transparent; stroke:none;"></rect><g><text text-anchor="start" align="top" anchor="start" font-family="微软雅黑" font-size="13px" font-weight="normal" fill="rgb(68, 68, 68)"><tspan x="579.796875" y="240.440625"><tspan>PayloadChannel</tspan></tspan></text></g><path d="M906.372741 0.018963C960.777481 0.075852 1005.131852 44.126815 1005.131852 98.49363L1005.131852 98.49363 1005.131852 98.49363 1005.131852 925.525333C1005.131852 979.892148 960.777481 1024 906.221037 1024L117.835852 1024C63.16563 1024 18.868148 979.892148 18.868148 925.525333L18.868148 98.49363C18.868148 44.126815 63.222519 0.018963 117.835852 0.018963M925.980444 74.088296 93.790815 74.088296 93.790815 945.170963 925.866667 945.170963 925.904593 945.170963 925.904593 74.088296 925.980444 74.088296 925.980444 74.088296ZM217.353481 338.640593 449.744593 338.640593C454.428444 338.640593 458.258963 334.829037 458.258963 330.145185L458.258963 264.438519 458.258963 263.338667C458.258963 258.673778 454.428444 254.748444 449.85837 254.748444L217.353481 254.748444C212.612741 254.748444 208.839111 258.673778 208.839111 263.338667L208.839111 330.145185C208.839111 334.829037 212.612741 338.640593 217.353481 338.640593L217.353481 338.640593 217.353481 338.640593ZM217.353481 554.799407 673.526519 554.799407C678.229333 554.799407 682.040889 550.987852 682.040889 546.304L682.040889 480.57837C682.154667 480.161185 682.154667 479.819852 682.154667 479.440593 682.154667 474.775704 678.381037 470.964148 673.754074 470.964148L217.353481 470.964148C212.612741 470.964148 208.839111 474.775704 208.839111 479.440593L208.839111 546.360889C208.839111 550.930963 212.612741 554.799407 217.353481 554.799407L217.353481 554.799407 217.353481 554.799407ZM217.353481 770.901333 806.532741 770.901333C811.178667 770.901333 815.047111 767.089778 815.047111 762.405926L815.047111 696.699259C815.104 696.263111 815.104 695.940741 815.104 695.542519 815.104 690.87763 811.33037 687.066074 806.760296 687.066074L217.353481 687.066074C212.612741 687.066074 208.839111 690.87763 208.839111 695.542519L208.839111 762.462815C208.839111 767.089778 212.612741 770.901333 217.353481 770.901333L217.353481 770.901333 217.353481 770.901333Z" fill="rgb(68,68,68)" transform="translate(684.5, 228.640625) scale(0.013671875)"></path></g><g id="2d2268563d7b"><rect x="570.796875" y="295.28125" rx="1px" ry="1px" width="90" height="25" style="fill: transparent; stroke:none;"></rect><g><text text-anchor="start" align="top" anchor="start" font-family="微软雅黑" font-size="13px" font-weight="normal" fill="rgb(68, 68, 68)"><tspan x="579.796875" y="311.721875"><tspan>Channel</tspan></tspan></text></g><path d="M906.372741 0.018963C960.777481 0.075852 1005.131852 44.126815 1005.131852 98.49363L1005.131852 98.49363 1005.131852 98.49363 1005.131852 925.525333C1005.131852 979.892148 960.777481 1024 906.221037 1024L117.835852 1024C63.16563 1024 18.868148 979.892148 18.868148 925.525333L18.868148 98.49363C18.868148 44.126815 63.222519 0.018963 117.835852 0.018963M925.980444 74.088296 93.790815 74.088296 93.790815 945.170963 925.866667 945.170963 925.904593 945.170963 925.904593 74.088296 925.980444 74.088296 925.980444 74.088296ZM217.353481 338.640593 449.744593 338.640593C454.428444 338.640593 458.258963 334.829037 458.258963 330.145185L458.258963 264.438519 458.258963 263.338667C458.258963 258.673778 454.428444 254.748444 449.85837 254.748444L217.353481 254.748444C212.612741 254.748444 208.839111 258.673778 208.839111 263.338667L208.839111 330.145185C208.839111 334.829037 212.612741 338.640593 217.353481 338.640593L217.353481 338.640593 217.353481 338.640593ZM217.353481 554.799407 673.526519 554.799407C678.229333 554.799407 682.040889 550.987852 682.040889 546.304L682.040889 480.57837C682.154667 480.161185 682.154667 479.819852 682.154667 479.440593 682.154667 474.775704 678.381037 470.964148 673.754074 470.964148L217.353481 470.964148C212.612741 470.964148 208.839111 474.775704 208.839111 479.440593L208.839111 546.360889C208.839111 550.930963 212.612741 554.799407 217.353481 554.799407L217.353481 554.799407 217.353481 554.799407ZM217.353481 770.901333 806.532741 770.901333C811.178667 770.901333 815.047111 767.089778 815.047111 762.405926L815.047111 696.699259C815.104 696.263111 815.104 695.940741 815.104 695.542519 815.104 690.87763 811.33037 687.066074 806.760296 687.066074L217.353481 687.066074C212.612741 687.066074 208.839111 690.87763 208.839111 695.542519L208.839111 762.462815C208.839111 767.089778 212.612741 770.901333 217.353481 770.901333L217.353481 770.901333 217.353481 770.901333Z" fill="rgb(68,68,68)" transform="translate(635.703125, 299.921875) scale(0.013671875)"></path></g><g id="27ce19d59ede"><rect x="690.703125" y="259.640625" rx="1px" ry="1px" width="86" height="26" style="fill: transparent; stroke:none;"></rect><g><text text-anchor="start" align="top" anchor="start" font-family="微软雅黑" font-size="13px" font-weight="normal" fill="rgb(68, 68, 68)"><tspan x="699.703125" y="276.08125"><tspan>Notifier</tspan></tspan></text></g><path d="M906.372741 0.018963C960.777481 0.075852 1005.131852 44.126815 1005.131852 98.49363L1005.131852 98.49363 1005.131852 98.49363 1005.131852 925.525333C1005.131852 979.892148 960.777481 1024 906.221037 1024L117.835852 1024C63.16563 1024 18.868148 979.892148 18.868148 925.525333L18.868148 98.49363C18.868148 44.126815 63.222519 0.018963 117.835852 0.018963M925.980444 74.088296 93.790815 74.088296 93.790815 945.170963 925.866667 945.170963 925.904593 945.170963 925.904593 74.088296 925.980444 74.088296 925.980444 74.088296ZM217.353481 338.640593 449.744593 338.640593C454.428444 338.640593 458.258963 334.829037 458.258963 330.145185L458.258963 264.438519 458.258963 263.338667C458.258963 258.673778 454.428444 254.748444 449.85837 254.748444L217.353481 254.748444C212.612741 254.748444 208.839111 258.673778 208.839111 263.338667L208.839111 330.145185C208.839111 334.829037 212.612741 338.640593 217.353481 338.640593L217.353481 338.640593 217.353481 338.640593ZM217.353481 554.799407 673.526519 554.799407C678.229333 554.799407 682.040889 550.987852 682.040889 546.304L682.040889 480.57837C682.154667 480.161185 682.154667 479.819852 682.154667 479.440593 682.154667 474.775704 678.381037 470.964148 673.754074 470.964148L217.353481 470.964148C212.612741 470.964148 208.839111 474.775704 208.839111 479.440593L208.839111 546.360889C208.839111 550.930963 212.612741 554.799407 217.353481 554.799407L217.353481 554.799407 217.353481 554.799407ZM217.353481 770.901333 806.532741 770.901333C811.178667 770.901333 815.047111 767.089778 815.047111 762.405926L815.047111 696.699259C815.104 696.263111 815.104 695.940741 815.104 695.542519 815.104 690.87763 811.33037 687.066074 806.760296 687.066074L217.353481 687.066074C212.612741 687.066074 208.839111 690.87763 208.839111 695.542519L208.839111 762.462815C208.839111 767.089778 212.612741 770.901333 217.353481 770.901333L217.353481 770.901333 217.353481 770.901333Z" fill="rgb(68,68,68)" transform="translate(751.359375, 264.28125) scale(0.013671875)"></path></g><g id="189e9659e4f6"><rect x="690.703125" y="313.09375" rx="1px" ry="1px" width="48" height="25" style="fill: transparent; stroke:none;"></rect><g><text text-anchor="start" align="top" anchor="start" font-family="微软雅黑" font-size="13px" font-weight="normal" fill="rgb(68, 68, 68)"><tspan x="699.703125" y="329.534375"><tspan>UDP</tspan></tspan></text></g></g><g id="6b46f91f40e3"><rect x="768.703125" y="295.28125" rx="1px" ry="1px" width="81" height="26" style="fill: transparent; stroke:none;"></rect><g><text text-anchor="start" align="top" anchor="start" font-family="微软雅黑" font-size="13px" font-weight="normal" fill="rgb(68, 68, 68)"><tspan x="777.703125" y="311.721875"><tspan>Consumer</tspan></tspan></text></g></g><g id="e87074c3c9ef"><rect x="768.703125" y="330.921875" rx="1px" ry="1px" width="74" height="26" style="fill: transparent; stroke:none;"></rect><g><text text-anchor="start" align="top" anchor="start" font-family="微软雅黑" font-size="13px" font-weight="normal" fill="rgb(68, 68, 68)"><tspan x="777.703125" y="347.3625"><tspan>Producer</tspan></tspan></text></g></g><g id="d7af66eff08d"><rect x="386.8125" y="794.25" rx="1px" ry="1px" width="48" height="25" style="fill: transparent; stroke:none;"></rect><g><text text-anchor="start" align="top" anchor="start" font-family="微软雅黑" font-size="13px" font-weight="normal" fill="rgb(68, 68, 68)"><tspan x="395.8125" y="810.690625"><tspan>RTC</tspan></tspan></text></g></g><g id="96c6ff170035"><rect x="464.8125" y="402.203125" rx="1px" ry="1px" width="146" height="25" style="fill: transparent; stroke:none;"></rect><g><text text-anchor="start" align="top" anchor="start" font-family="微软雅黑" font-size="13px" font-weight="normal" fill="rgb(68, 68, 68)"><tspan x="473.8125" y="418.64375"><tspan>Manager类型(管理器)</tspan></tspan></text></g></g><g id="370774453c74"><rect x="640.390625" y="366.5625" rx="1px" ry="1px" width="95" height="26" style="fill: transparent; stroke:none;"></rect><g><text text-anchor="start" align="top" anchor="start" font-family="微软雅黑" font-size="13px" font-weight="normal" fill="rgb(68, 68, 68)"><tspan x="649.390625" y="383.003125"><tspan>SeqManager</tspan></tspan></text></g></g><g id="98df45b5a0bd"><rect x="640.390625" y="402.203125" rx="1px" ry="1px" width="98" height="26" style="fill: transparent; stroke:none;"></rect><g><text text-anchor="start" align="top" anchor="start" font-family="微软雅黑" font-size="13px" font-weight="normal" fill="rgb(68, 68, 68)"><tspan x="649.390625" y="418.64375"><tspan>PortManager</tspan></tspan></text></g></g><g id="5a3c4c79a6d6"><rect x="640.390625" y="437.84375" rx="1px" ry="1px" width="184" height="26" style="fill: transparent; stroke:none;"></rect><g><text text-anchor="start" align="top" anchor="start" font-family="微软雅黑" font-size="13px" font-weight="normal" fill="rgb(68, 68, 68)"><tspan x="649.390625" y="454.284375"><tspan>KeyFrameRequestManager</tspan></tspan></text></g></g><g id="89fe40d8519a"><rect x="464.8125" y="473.484375" rx="1px" ry="1px" width="75" height="26" style="fill: transparent; stroke:none;"></rect><g><text text-anchor="start" align="top" anchor="start" font-family="微软雅黑" font-size="13px" font-weight="normal" fill="rgb(68, 68, 68)"><tspan x="473.8125" y="489.925"><tspan>IceServer</tspan></tspan></text></g></g><g id="5cfffac959da"><rect x="569.921875" y="473.484375" rx="1px" ry="1px" width="88" height="26" style="fill: transparent; stroke:none;"></rect><g><text text-anchor="start" align="top" anchor="start" font-family="微软雅黑" font-size="13px" font-weight="normal" fill="rgb(68, 68, 68)"><tspan x="578.921875" y="489.925"><tspan>StunPacket</tspan></tspan></text></g></g><g id="91fa40e5caa8"><rect x="464.8125" y="562.578125" rx="1px" ry="1px" width="78" height="26" style="fill: transparent; stroke:none;"></rect><g><text text-anchor="start" align="top" anchor="start" font-family="微软雅黑" font-size="13px" font-weight="normal" fill="rgb(68, 68, 68)"><tspan x="473.8125" y="579.01875"><tspan>Transport</tspan></tspan></text></g></g><g id="3d272c0311a7"><rect x="572.359375" y="509.125" rx="1px" ry="1px" width="148" height="26" style="fill: transparent; stroke:none;"></rect><g><text text-anchor="start" align="top" anchor="start" font-family="微软雅黑" font-size="13px" font-weight="normal" fill="rgb(68, 68, 68)"><tspan x="581.359375" y="525.565625"><tspan>WebRtcTransport</tspan></tspan></text></g><path d="M906.372741 0.018963C960.777481 0.075852 1005.131852 44.126815 1005.131852 98.49363L1005.131852 98.49363 1005.131852 98.49363 1005.131852 925.525333C1005.131852 979.892148 960.777481 1024 906.221037 1024L117.835852 1024C63.16563 1024 18.868148 979.892148 18.868148 925.525333L18.868148 98.49363C18.868148 44.126815 63.222519 0.018963 117.835852 0.018963M925.980444 74.088296 93.790815 74.088296 93.790815 945.170963 925.866667 945.170963 925.904593 945.170963 925.904593 74.088296 925.980444 74.088296 925.980444 74.088296ZM217.353481 338.640593 449.744593 338.640593C454.428444 338.640593 458.258963 334.829037 458.258963 330.145185L458.258963 264.438519 458.258963 263.338667C458.258963 258.673778 454.428444 254.748444 449.85837 254.748444L217.353481 254.748444C212.612741 254.748444 208.839111 258.673778 208.839111 263.338667L208.839111 330.145185C208.839111 334.829037 212.612741 338.640593 217.353481 338.640593L217.353481 338.640593 217.353481 338.640593ZM217.353481 554.799407 673.526519 554.799407C678.229333 554.799407 682.040889 550.987852 682.040889 546.304L682.040889 480.57837C682.154667 480.161185 682.154667 479.819852 682.154667 479.440593 682.154667 474.775704 678.381037 470.964148 673.754074 470.964148L217.353481 470.964148C212.612741 470.964148 208.839111 474.775704 208.839111 479.440593L208.839111 546.360889C208.839111 550.930963 212.612741 554.799407 217.353481 554.799407L217.353481 554.799407 217.353481 554.799407ZM217.353481 770.901333 806.532741 770.901333C811.178667 770.901333 815.047111 767.089778 815.047111 762.405926L815.047111 696.699259C815.104 696.263111 815.104 695.940741 815.104 695.542519 815.104 690.87763 811.33037 687.066074 806.760296 687.066074L217.353481 687.066074C212.612741 687.066074 208.839111 690.87763 208.839111 695.542519L208.839111 762.462815C208.839111 767.089778 212.612741 770.901333 217.353481 770.901333L217.353481 770.901333 217.353481 770.901333Z" fill="rgb(68,68,68)" transform="translate(695.265625, 513.765625) scale(0.013671875)"></path></g><g id="bcd22060459d"><rect x="572.359375" y="544.765625" rx="1px" ry="1px" width="130" height="26" style="fill: transparent; stroke:none;"></rect><g><text text-anchor="start" align="top" anchor="start" font-family="微软雅黑" font-size="13px" font-weight="normal" fill="rgb(68, 68, 68)"><tspan x="581.359375" y="561.20625"><tspan>PlainTransport</tspan></tspan></text></g><path d="M906.372741 0.018963C960.777481 0.075852 1005.131852 44.126815 1005.131852 98.49363L1005.131852 98.49363 1005.131852 98.49363 1005.131852 925.525333C1005.131852 979.892148 960.777481 1024 906.221037 1024L117.835852 1024C63.16563 1024 18.868148 979.892148 18.868148 925.525333L18.868148 98.49363C18.868148 44.126815 63.222519 0.018963 117.835852 0.018963M925.980444 74.088296 93.790815 74.088296 93.790815 945.170963 925.866667 945.170963 925.904593 945.170963 925.904593 74.088296 925.980444 74.088296 925.980444 74.088296ZM217.353481 338.640593 449.744593 338.640593C454.428444 338.640593 458.258963 334.829037 458.258963 330.145185L458.258963 264.438519 458.258963 263.338667C458.258963 258.673778 454.428444 254.748444 449.85837 254.748444L217.353481 254.748444C212.612741 254.748444 208.839111 258.673778 208.839111 263.338667L208.839111 330.145185C208.839111 334.829037 212.612741 338.640593 217.353481 338.640593L217.353481 338.640593 217.353481 338.640593ZM217.353481 554.799407 673.526519 554.799407C678.229333 554.799407 682.040889 550.987852 682.040889 546.304L682.040889 480.57837C682.154667 480.161185 682.154667 479.819852 682.154667 479.440593 682.154667 474.775704 678.381037 470.964148 673.754074 470.964148L217.353481 470.964148C212.612741 470.964148 208.839111 474.775704 208.839111 479.440593L208.839111 546.360889C208.839111 550.930963 212.612741 554.799407 217.353481 554.799407L217.353481 554.799407 217.353481 554.799407ZM217.353481 770.901333 806.532741 770.901333C811.178667 770.901333 815.047111 767.089778 815.047111 762.405926L815.047111 696.699259C815.104 696.263111 815.104 695.940741 815.104 695.542519 815.104 690.87763 811.33037 687.066074 806.760296 687.066074L217.353481 687.066074C212.612741 687.066074 208.839111 690.87763 208.839111 695.542519L208.839111 762.462815C208.839111 767.089778 212.612741 770.901333 217.353481 770.901333L217.353481 770.901333 217.353481 770.901333Z" fill="rgb(68,68,68)" transform="translate(677.046875, 549.40625) scale(0.013671875)"></path></g><g id="7b6f34fa6f56"><rect x="572.359375" y="580.40625" rx="1px" ry="1px" width="127" height="26" style="fill: transparent; stroke:none;"></rect><g><text text-anchor="start" align="top" anchor="start" font-family="微软雅黑" font-size="13px" font-weight="normal" fill="rgb(68, 68, 68)"><tspan x="581.359375" y="596.846875"><tspan>PipeTransport</tspan></tspan></text></g><path d="M906.372741 0.018963C960.777481 0.075852 1005.131852 44.126815 1005.131852 98.49363L1005.131852 98.49363 1005.131852 98.49363 1005.131852 925.525333C1005.131852 979.892148 960.777481 1024 906.221037 1024L117.835852 1024C63.16563 1024 18.868148 979.892148 18.868148 925.525333L18.868148 98.49363C18.868148 44.126815 63.222519 0.018963 117.835852 0.018963M925.980444 74.088296 93.790815 74.088296 93.790815 945.170963 925.866667 945.170963 925.904593 945.170963 925.904593 74.088296 925.980444 74.088296 925.980444 74.088296ZM217.353481 338.640593 449.744593 338.640593C454.428444 338.640593 458.258963 334.829037 458.258963 330.145185L458.258963 264.438519 458.258963 263.338667C458.258963 258.673778 454.428444 254.748444 449.85837 254.748444L217.353481 254.748444C212.612741 254.748444 208.839111 258.673778 208.839111 263.338667L208.839111 330.145185C208.839111 334.829037 212.612741 338.640593 217.353481 338.640593L217.353481 338.640593 217.353481 338.640593ZM217.353481 554.799407 673.526519 554.799407C678.229333 554.799407 682.040889 550.987852 682.040889 546.304L682.040889 480.57837C682.154667 480.161185 682.154667 479.819852 682.154667 479.440593 682.154667 474.775704 678.381037 470.964148 673.754074 470.964148L217.353481 470.964148C212.612741 470.964148 208.839111 474.775704 208.839111 479.440593L208.839111 546.360889C208.839111 550.930963 212.612741 554.799407 217.353481 554.799407L217.353481 554.799407 217.353481 554.799407ZM217.353481 770.901333 806.532741 770.901333C811.178667 770.901333 815.047111 767.089778 815.047111 762.405926L815.047111 696.699259C815.104 696.263111 815.104 695.940741 815.104 695.542519 815.104 690.87763 811.33037 687.066074 806.760296 687.066074L217.353481 687.066074C212.612741 687.066074 208.839111 690.87763 208.839111 695.542519L208.839111 762.462815C208.839111 767.089778 212.612741 770.901333 217.353481 770.901333L217.353481 770.901333 217.353481 770.901333Z" fill="rgb(68,68,68)" transform="translate(674.015625, 585.046875) scale(0.013671875)"></path></g><g id="3ee2d92c7b28"><rect x="572.359375" y="616.046875" rx="1px" ry="1px" width="115" height="26" style="fill: transparent; stroke:none;"></rect><g><text text-anchor="start" align="top" anchor="start" font-family="微软雅黑" font-size="13px" font-weight="normal" fill="rgb(68, 68, 68)"><tspan x="581.359375" y="632.4875"><tspan>DirectTransport</tspan></tspan></text></g></g><g id="dc4ca936bf54"><rect x="464.8125" y="776.421875" rx="1px" ry="1px" width="81" height="25" style="fill: transparent; stroke:none;"></rect><g><text text-anchor="start" align="top" anchor="start" font-family="微软雅黑" font-size="13px" font-weight="normal" fill="rgb(68, 68, 68)"><tspan x="473.8125" y="792.8625"><tspan>Router</tspan></tspan></text></g><path d="M906.372741 0.018963C960.777481 0.075852 1005.131852 44.126815 1005.131852 98.49363L1005.131852 98.49363 1005.131852 98.49363 1005.131852 925.525333C1005.131852 979.892148 960.777481 1024 906.221037 1024L117.835852 1024C63.16563 1024 18.868148 979.892148 18.868148 925.525333L18.868148 98.49363C18.868148 44.126815 63.222519 0.018963 117.835852 0.018963M925.980444 74.088296 93.790815 74.088296 93.790815 945.170963 925.866667 945.170963 925.904593 945.170963 925.904593 74.088296 925.980444 74.088296 925.980444 74.088296ZM217.353481 338.640593 449.744593 338.640593C454.428444 338.640593 458.258963 334.829037 458.258963 330.145185L458.258963 264.438519 458.258963 263.338667C458.258963 258.673778 454.428444 254.748444 449.85837 254.748444L217.353481 254.748444C212.612741 254.748444 208.839111 258.673778 208.839111 263.338667L208.839111 330.145185C208.839111 334.829037 212.612741 338.640593 217.353481 338.640593L217.353481 338.640593 217.353481 338.640593ZM217.353481 554.799407 673.526519 554.799407C678.229333 554.799407 682.040889 550.987852 682.040889 546.304L682.040889 480.57837C682.154667 480.161185 682.154667 479.819852 682.154667 479.440593 682.154667 474.775704 678.381037 470.964148 673.754074 470.964148L217.353481 470.964148C212.612741 470.964148 208.839111 474.775704 208.839111 479.440593L208.839111 546.360889C208.839111 550.930963 212.612741 554.799407 217.353481 554.799407L217.353481 554.799407 217.353481 554.799407ZM217.353481 770.901333 806.532741 770.901333C811.178667 770.901333 815.047111 767.089778 815.047111 762.405926L815.047111 696.699259C815.104 696.263111 815.104 695.940741 815.104 695.542519 815.104 690.87763 811.33037 687.066074 806.760296 687.066074L217.353481 687.066074C212.612741 687.066074 208.839111 690.87763 208.839111 695.542519L208.839111 762.462815C208.839111 767.089778 212.612741 770.901333 217.353481 770.901333L217.353481 770.901333 217.353481 770.901333Z" fill="rgb(68,68,68)" transform="translate(520.921875, 781.0625) scale(0.013671875)"></path></g><g id="ff0180e7d182"><rect x="575.921875" y="776.421875" rx="1px" ry="1px" width="78" height="25" style="fill: transparent; stroke:none;"></rect><g><text text-anchor="start" align="top" anchor="start" font-family="微软雅黑" font-size="13px" font-weight="normal" fill="rgb(68, 68, 68)"><tspan x="584.921875" y="792.8625"><tspan>Transport</tspan></tspan></text></g></g><g id="a8267bf7e0bf"><rect x="683.46875" y="722.96875" rx="1px" ry="1px" width="133" height="26" style="fill: transparent; stroke:none;"></rect><g><text text-anchor="start" align="top" anchor="start" font-family="微软雅黑" font-size="13px" font-weight="normal" fill="rgb(68, 68, 68)"><tspan x="692.46875" y="739.409375"><tspan>HandleRequest</tspan></tspan></text></g><path d="M906.372741 0.018963C960.777481 0.075852 1005.131852 44.126815 1005.131852 98.49363L1005.131852 98.49363 1005.131852 98.49363 1005.131852 925.525333C1005.131852 979.892148 960.777481 1024 906.221037 1024L117.835852 1024C63.16563 1024 18.868148 979.892148 18.868148 925.525333L18.868148 98.49363C18.868148 44.126815 63.222519 0.018963 117.835852 0.018963M925.980444 74.088296 93.790815 74.088296 93.790815 945.170963 925.866667 945.170963 925.904593 945.170963 925.904593 74.088296 925.980444 74.088296 925.980444 74.088296ZM217.353481 338.640593 449.744593 338.640593C454.428444 338.640593 458.258963 334.829037 458.258963 330.145185L458.258963 264.438519 458.258963 263.338667C458.258963 258.673778 454.428444 254.748444 449.85837 254.748444L217.353481 254.748444C212.612741 254.748444 208.839111 258.673778 208.839111 263.338667L208.839111 330.145185C208.839111 334.829037 212.612741 338.640593 217.353481 338.640593L217.353481 338.640593 217.353481 338.640593ZM217.353481 554.799407 673.526519 554.799407C678.229333 554.799407 682.040889 550.987852 682.040889 546.304L682.040889 480.57837C682.154667 480.161185 682.154667 479.819852 682.154667 479.440593 682.154667 474.775704 678.381037 470.964148 673.754074 470.964148L217.353481 470.964148C212.612741 470.964148 208.839111 474.775704 208.839111 479.440593L208.839111 546.360889C208.839111 550.930963 212.612741 554.799407 217.353481 554.799407L217.353481 554.799407 217.353481 554.799407ZM217.353481 770.901333 806.532741 770.901333C811.178667 770.901333 815.047111 767.089778 815.047111 762.405926L815.047111 696.699259C815.104 696.263111 815.104 695.940741 815.104 695.542519 815.104 690.87763 811.33037 687.066074 806.760296 687.066074L217.353481 687.066074C212.612741 687.066074 208.839111 690.87763 208.839111 695.542519L208.839111 762.462815C208.839111 767.089778 212.612741 770.901333 217.353481 770.901333L217.353481 770.901333 217.353481 770.901333Z" fill="rgb(68,68,68)" transform="translate(791.609375, 727.609375) scale(0.013671875)"></path></g><g id="f346274412bb"><rect x="846.609375" y="651.6875" rx="1px" ry="1px" width="117" height="26" style="fill: transparent; stroke:none;"></rect><g><text text-anchor="start" align="top" anchor="start" font-family="微软雅黑" font-size="13px" font-weight="normal" fill="rgb(68, 68, 68)"><tspan x="855.609375" y="668.128125"><tspan>PayloadChannel</tspan></tspan></text></g></g><g id="b790d6e032ff"><rect x="993.3125" y="651.6875" rx="1px" ry="1px" width="131" height="26" style="fill: transparent; stroke:none;"></rect><g><text text-anchor="start" align="top" anchor="start" font-family="微软雅黑" font-size="13px" font-weight="normal" fill="rgb(68, 68, 68)"><tspan x="1002.3125" y="668.128125"><tspan>DataConsumer</tspan></tspan></text></g><path d="M906.372741 0.018963C960.777481 0.075852 1005.131852 44.126815 1005.131852 98.49363L1005.131852 98.49363 1005.131852 98.49363 1005.131852 925.525333C1005.131852 979.892148 960.777481 1024 906.221037 1024L117.835852 1024C63.16563 1024 18.868148 979.892148 18.868148 925.525333L18.868148 98.49363C18.868148 44.126815 63.222519 0.018963 117.835852 0.018963M925.980444 74.088296 93.790815 74.088296 93.790815 945.170963 925.866667 945.170963 925.904593 945.170963 925.904593 74.088296 925.980444 74.088296 925.980444 74.088296ZM217.353481 338.640593 449.744593 338.640593C454.428444 338.640593 458.258963 334.829037 458.258963 330.145185L458.258963 264.438519 458.258963 263.338667C458.258963 258.673778 454.428444 254.748444 449.85837 254.748444L217.353481 254.748444C212.612741 254.748444 208.839111 258.673778 208.839111 263.338667L208.839111 330.145185C208.839111 334.829037 212.612741 338.640593 217.353481 338.640593L217.353481 338.640593 217.353481 338.640593ZM217.353481 554.799407 673.526519 554.799407C678.229333 554.799407 682.040889 550.987852 682.040889 546.304L682.040889 480.57837C682.154667 480.161185 682.154667 479.819852 682.154667 479.440593 682.154667 474.775704 678.381037 470.964148 673.754074 470.964148L217.353481 470.964148C212.612741 470.964148 208.839111 474.775704 208.839111 479.440593L208.839111 546.360889C208.839111 550.930963 212.612741 554.799407 217.353481 554.799407L217.353481 554.799407 217.353481 554.799407ZM217.353481 770.901333 806.532741 770.901333C811.178667 770.901333 815.047111 767.089778 815.047111 762.405926L815.047111 696.699259C815.104 696.263111 815.104 695.940741 815.104 695.542519 815.104 690.87763 811.33037 687.066074 806.760296 687.066074L217.353481 687.066074C212.612741 687.066074 208.839111 690.87763 208.839111 695.542519L208.839111 762.462815C208.839111 767.089778 212.612741 770.901333 217.353481 770.901333L217.353481 770.901333 217.353481 770.901333Z" fill="rgb(68,68,68)" transform="translate(1099.703125, 656.328125) scale(0.013671875)"></path></g><g id="0820ad2c496b"><rect x="846.609375" y="740.78125" rx="1px" ry="1px" width="68" height="26" style="fill: transparent; stroke:none;"></rect><g><text text-anchor="start" align="top" anchor="start" font-family="微软雅黑" font-size="13px" font-weight="normal" fill="rgb(68, 68, 68)"><tspan x="855.609375" y="757.221875"><tspan>Channel</tspan></tspan></text></g></g><g id="f5d0d967d392"><rect x="944.515625" y="687.328125" rx="1px" ry="1px" width="109" height="26" style="fill: transparent; stroke:none;"></rect><g><text text-anchor="start" align="top" anchor="start" font-family="微软雅黑" font-size="13px" font-weight="normal" fill="rgb(68, 68, 68)"><tspan x="953.515625" y="703.76875"><tspan>DataConsumer</tspan></tspan></text></g></g><g id="32b5697d8f55"><rect x="944.515625" y="722.96875" rx="1px" ry="1px" width="125" height="26" style="fill: transparent; stroke:none;"></rect><g><text text-anchor="start" align="top" anchor="start" font-family="微软雅黑" font-size="13px" font-weight="normal" fill="rgb(68, 68, 68)"><tspan x="953.515625" y="739.409375"><tspan>DataProducer</tspan></tspan></text></g><path d="M906.372741 0.018963C960.777481 0.075852 1005.131852 44.126815 1005.131852 98.49363L1005.131852 98.49363 1005.131852 98.49363 1005.131852 925.525333C1005.131852 979.892148 960.777481 1024 906.221037 1024L117.835852 1024C63.16563 1024 18.868148 979.892148 18.868148 925.525333L18.868148 98.49363C18.868148 44.126815 63.222519 0.018963 117.835852 0.018963M925.980444 74.088296 93.790815 74.088296 93.790815 945.170963 925.866667 945.170963 925.904593 945.170963 925.904593 74.088296 925.980444 74.088296 925.980444 74.088296ZM217.353481 338.640593 449.744593 338.640593C454.428444 338.640593 458.258963 334.829037 458.258963 330.145185L458.258963 264.438519 458.258963 263.338667C458.258963 258.673778 454.428444 254.748444 449.85837 254.748444L217.353481 254.748444C212.612741 254.748444 208.839111 258.673778 208.839111 263.338667L208.839111 330.145185C208.839111 334.829037 212.612741 338.640593 217.353481 338.640593L217.353481 338.640593 217.353481 338.640593ZM217.353481 554.799407 673.526519 554.799407C678.229333 554.799407 682.040889 550.987852 682.040889 546.304L682.040889 480.57837C682.154667 480.161185 682.154667 479.819852 682.154667 479.440593 682.154667 474.775704 678.381037 470.964148 673.754074 470.964148L217.353481 470.964148C212.612741 470.964148 208.839111 474.775704 208.839111 479.440593L208.839111 546.360889C208.839111 550.930963 212.612741 554.799407 217.353481 554.799407L217.353481 554.799407 217.353481 554.799407ZM217.353481 770.901333 806.532741 770.901333C811.178667 770.901333 815.047111 767.089778 815.047111 762.405926L815.047111 696.699259C815.104 696.263111 815.104 695.940741 815.104 695.542519 815.104 690.87763 811.33037 687.066074 806.760296 687.066074L217.353481 687.066074C212.612741 687.066074 208.839111 690.87763 208.839111 695.542519L208.839111 762.462815C208.839111 767.089778 212.612741 770.901333 217.353481 770.901333L217.353481 770.901333 217.353481 770.901333Z" fill="rgb(68,68,68)" transform="translate(1044.09375, 727.609375) scale(0.013671875)"></path></g><g id="c39a89d2e771"><rect x="944.515625" y="758.609375" rx="1px" ry="1px" width="74" height="26" style="fill: transparent; stroke:none;"></rect><g><text text-anchor="start" align="top" anchor="start" font-family="微软雅黑" font-size="13px" font-weight="normal" fill="rgb(68, 68, 68)"><tspan x="953.515625" y="775.05"><tspan>Producer</tspan></tspan></text></g></g><g id="7b1f4d9bad55"><rect x="944.515625" y="794.25" rx="1px" ry="1px" width="81" height="26" style="fill: transparent; stroke:none;"></rect><g><text text-anchor="start" align="top" anchor="start" font-family="微软雅黑" font-size="13px" font-weight="normal" fill="rgb(68, 68, 68)"><tspan x="953.515625" y="810.690625"><tspan>Consumer</tspan></tspan></text></g></g><g id="35fa4befddf5"><rect x="683.46875" y="847.703125" rx="1px" ry="1px" width="132" height="25" style="fill: transparent; stroke:none;"></rect><g><text text-anchor="start" align="top" anchor="start" font-family="微软雅黑" font-size="13px" font-weight="normal" fill="rgb(68, 68, 68)"><tspan x="692.46875" y="864.14375"><tspan>HandleRtcpPacket</tspan></tspan></text></g></g><g id="6602cfccdfb8"><rect x="845.1875" y="829.890625" rx="1px" ry="1px" width="166" height="26" style="fill: transparent; stroke:none;"></rect><g><text text-anchor="start" align="top" anchor="start" font-family="微软雅黑" font-size="13px" font-weight="normal" fill="rgb(68, 68, 68)"><tspan x="854.1875" y="846.33125"><tspan>GetConsumerByRtxSsrc</tspan></tspan></text></g></g><g id="8327b89eb741"><rect x="845.1875" y="865.53125" rx="1px" ry="1px" width="183" height="26" style="fill: transparent; stroke:none;"></rect><g><text text-anchor="start" align="top" anchor="start" font-family="微软雅黑" font-size="13px" font-weight="normal" fill="rgb(68, 68, 68)"><tspan x="854.1875" y="881.971875"><tspan>GetConsumerByMediaSsrc</tspan></tspan></text></g></g><g id="86548e4bceca"><rect x="683.46875" y="901.171875" rx="1px" ry="1px" width="154" height="26" style="fill: transparent; stroke:none;"></rect><g><text text-anchor="start" align="top" anchor="start" font-family="微软雅黑" font-size="13px" font-weight="normal" fill="rgb(68, 68, 68)"><tspan x="692.46875" y="917.6125"><tspan>HandleNotification</tspan></tspan></text></g><path d="M906.372741 0.018963C960.777481 0.075852 1005.131852 44.126815 1005.131852 98.49363L1005.131852 98.49363 1005.131852 98.49363 1005.131852 925.525333C1005.131852 979.892148 960.777481 1024 906.221037 1024L117.835852 1024C63.16563 1024 18.868148 979.892148 18.868148 925.525333L18.868148 98.49363C18.868148 44.126815 63.222519 0.018963 117.835852 0.018963M925.980444 74.088296 93.790815 74.088296 93.790815 945.170963 925.866667 945.170963 925.904593 945.170963 925.904593 74.088296 925.980444 74.088296 925.980444 74.088296ZM217.353481 338.640593 449.744593 338.640593C454.428444 338.640593 458.258963 334.829037 458.258963 330.145185L458.258963 264.438519 458.258963 263.338667C458.258963 258.673778 454.428444 254.748444 449.85837 254.748444L217.353481 254.748444C212.612741 254.748444 208.839111 258.673778 208.839111 263.338667L208.839111 330.145185C208.839111 334.829037 212.612741 338.640593 217.353481 338.640593L217.353481 338.640593 217.353481 338.640593ZM217.353481 554.799407 673.526519 554.799407C678.229333 554.799407 682.040889 550.987852 682.040889 546.304L682.040889 480.57837C682.154667 480.161185 682.154667 479.819852 682.154667 479.440593 682.154667 474.775704 678.381037 470.964148 673.754074 470.964148L217.353481 470.964148C212.612741 470.964148 208.839111 474.775704 208.839111 479.440593L208.839111 546.360889C208.839111 550.930963 212.612741 554.799407 217.353481 554.799407L217.353481 554.799407 217.353481 554.799407ZM217.353481 770.901333 806.532741 770.901333C811.178667 770.901333 815.047111 767.089778 815.047111 762.405926L815.047111 696.699259C815.104 696.263111 815.104 695.940741 815.104 695.542519 815.104 690.87763 811.33037 687.066074 806.760296 687.066074L217.353481 687.066074C212.612741 687.066074 208.839111 690.87763 208.839111 695.542519L208.839111 762.462815C208.839111 767.089778 212.612741 770.901333 217.353481 770.901333L217.353481 770.901333 217.353481 770.901333Z" fill="rgb(68,68,68)" transform="translate(812.8125, 905.8125) scale(0.013671875)"></path></g><g id="1727afd575c8"><rect x="464.8125" y="936.8125" rx="1px" ry="1px" width="48" height="26" style="fill: transparent; stroke:none;"></rect><g><text text-anchor="start" align="top" anchor="start" font-family="微软雅黑" font-size="13px" font-weight="normal" fill="rgb(68, 68, 68)"><tspan x="473.8125" y="953.253125"><tspan>RTP</tspan></tspan></text></g></g><g id="767c9a2e55c9"><rect x="542.8125" y="936.8125" rx="1px" ry="1px" width="111" height="26" style="fill: transparent; stroke:none;"></rect><g><text text-anchor="start" align="top" anchor="start" font-family="微软雅黑" font-size="13px" font-weight="normal" fill="rgb(68, 68, 68)"><tspan x="551.8125" y="953.253125"><tspan>NackGenerator</tspan></tspan></text></g></g><g id="272e64d83b6c"><rect x="464.8125" y="990.265625" rx="1px" ry="1px" width="95" height="25" style="fill: transparent; stroke:none;"></rect><g><text text-anchor="start" align="top" anchor="start" font-family="微软雅黑" font-size="13px" font-weight="normal" fill="rgb(68, 68, 68)"><tspan x="473.8125" y="1006.70625"><tspan>Observer</tspan></tspan></text></g><path d="M906.372741 0.018963C960.777481 0.075852 1005.131852 44.126815 1005.131852 98.49363L1005.131852 98.49363 1005.131852 98.49363 1005.131852 925.525333C1005.131852 979.892148 960.777481 1024 906.221037 1024L117.835852 1024C63.16563 1024 18.868148 979.892148 18.868148 925.525333L18.868148 98.49363C18.868148 44.126815 63.222519 0.018963 117.835852 0.018963M925.980444 74.088296 93.790815 74.088296 93.790815 945.170963 925.866667 945.170963 925.904593 945.170963 925.904593 74.088296 925.980444 74.088296 925.980444 74.088296ZM217.353481 338.640593 449.744593 338.640593C454.428444 338.640593 458.258963 334.829037 458.258963 330.145185L458.258963 264.438519 458.258963 263.338667C458.258963 258.673778 454.428444 254.748444 449.85837 254.748444L217.353481 254.748444C212.612741 254.748444 208.839111 258.673778 208.839111 263.338667L208.839111 330.145185C208.839111 334.829037 212.612741 338.640593 217.353481 338.640593L217.353481 338.640593 217.353481 338.640593ZM217.353481 554.799407 673.526519 554.799407C678.229333 554.799407 682.040889 550.987852 682.040889 546.304L682.040889 480.57837C682.154667 480.161185 682.154667 479.819852 682.154667 479.440593 682.154667 474.775704 678.381037 470.964148 673.754074 470.964148L217.353481 470.964148C212.612741 470.964148 208.839111 474.775704 208.839111 479.440593L208.839111 546.360889C208.839111 550.930963 212.612741 554.799407 217.353481 554.799407L217.353481 554.799407 217.353481 554.799407ZM217.353481 770.901333 806.532741 770.901333C811.178667 770.901333 815.047111 767.089778 815.047111 762.405926L815.047111 696.699259C815.104 696.263111 815.104 695.940741 815.104 695.542519 815.104 690.87763 811.33037 687.066074 806.760296 687.066074L217.353481 687.066074C212.612741 687.066074 208.839111 690.87763 208.839111 695.542519L208.839111 762.462815C208.839111 767.089778 212.612741 770.901333 217.353481 770.901333L217.353481 770.901333 217.353481 770.901333Z" fill="rgb(68,68,68)" transform="translate(535.234375, 994.90625) scale(0.013671875)"></path></g><g id="872cb0d7a686"><rect x="590.234375" y="972.453125" rx="1px" ry="1px" width="117" height="26" style="fill: transparent; stroke:none;"></rect><g><text text-anchor="start" align="top" anchor="start" font-family="微软雅黑" font-size="13px" font-weight="normal" fill="rgb(68, 68, 68)"><tspan x="599.234375" y="988.89375"><tspan>RtpObserver</tspan></tspan></text></g><path d="M906.372741 0.018963C960.777481 0.075852 1005.131852 44.126815 1005.131852 98.49363L1005.131852 98.49363 1005.131852 98.49363 1005.131852 925.525333C1005.131852 979.892148 960.777481 1024 906.221037 1024L117.835852 1024C63.16563 1024 18.868148 979.892148 18.868148 925.525333L18.868148 98.49363C18.868148 44.126815 63.222519 0.018963 117.835852 0.018963M925.980444 74.088296 93.790815 74.088296 93.790815 945.170963 925.866667 945.170963 925.904593 945.170963 925.904593 74.088296 925.980444 74.088296 925.980444 74.088296ZM217.353481 338.640593 449.744593 338.640593C454.428444 338.640593 458.258963 334.829037 458.258963 330.145185L458.258963 264.438519 458.258963 263.338667C458.258963 258.673778 454.428444 254.748444 449.85837 254.748444L217.353481 254.748444C212.612741 254.748444 208.839111 258.673778 208.839111 263.338667L208.839111 330.145185C208.839111 334.829037 212.612741 338.640593 217.353481 338.640593L217.353481 338.640593 217.353481 338.640593ZM217.353481 554.799407 673.526519 554.799407C678.229333 554.799407 682.040889 550.987852 682.040889 546.304L682.040889 480.57837C682.154667 480.161185 682.154667 479.819852 682.154667 479.440593 682.154667 474.775704 678.381037 470.964148 673.754074 470.964148L217.353481 470.964148C212.612741 470.964148 208.839111 474.775704 208.839111 479.440593L208.839111 546.360889C208.839111 550.930963 212.612741 554.799407 217.353481 554.799407L217.353481 554.799407 217.353481 554.799407ZM217.353481 770.901333 806.532741 770.901333C811.178667 770.901333 815.047111 767.089778 815.047111 762.405926L815.047111 696.699259C815.104 696.263111 815.104 695.940741 815.104 695.542519 815.104 690.87763 811.33037 687.066074 806.760296 687.066074L217.353481 687.066074C212.612741 687.066074 208.839111 690.87763 208.839111 695.542519L208.839111 762.462815C208.839111 767.089778 212.612741 770.901333 217.353481 770.901333L217.353481 770.901333 217.353481 770.901333Z" fill="rgb(68,68,68)" transform="translate(682.109375, 977.09375) scale(0.013671875)"></path></g><g id="a36fa7307343"><rect x="590.234375" y="1008.09375" rx="1px" ry="1px" width="163" height="26" style="fill: transparent; stroke:none;"></rect><g><text text-anchor="start" align="top" anchor="start" font-family="微软雅黑" font-size="13px" font-weight="normal" fill="rgb(68, 68, 68)"><tspan x="599.234375" y="1024.534375"><tspan>AudioLevelObserver</tspan></tspan></text></g><path d="M906.372741 0.018963C960.777481 0.075852 1005.131852 44.126815 1005.131852 98.49363L1005.131852 98.49363 1005.131852 98.49363 1005.131852 925.525333C1005.131852 979.892148 960.777481 1024 906.221037 1024L117.835852 1024C63.16563 1024 18.868148 979.892148 18.868148 925.525333L18.868148 98.49363C18.868148 44.126815 63.222519 0.018963 117.835852 0.018963M925.980444 74.088296 93.790815 74.088296 93.790815 945.170963 925.866667 945.170963 925.904593 945.170963 925.904593 74.088296 925.980444 74.088296 925.980444 74.088296ZM217.353481 338.640593 449.744593 338.640593C454.428444 338.640593 458.258963 334.829037 458.258963 330.145185L458.258963 264.438519 458.258963 263.338667C458.258963 258.673778 454.428444 254.748444 449.85837 254.748444L217.353481 254.748444C212.612741 254.748444 208.839111 258.673778 208.839111 263.338667L208.839111 330.145185C208.839111 334.829037 212.612741 338.640593 217.353481 338.640593L217.353481 338.640593 217.353481 338.640593ZM217.353481 554.799407 673.526519 554.799407C678.229333 554.799407 682.040889 550.987852 682.040889 546.304L682.040889 480.57837C682.154667 480.161185 682.154667 479.819852 682.154667 479.440593 682.154667 474.775704 678.381037 470.964148 673.754074 470.964148L217.353481 470.964148C212.612741 470.964148 208.839111 474.775704 208.839111 479.440593L208.839111 546.360889C208.839111 550.930963 212.612741 554.799407 217.353481 554.799407L217.353481 554.799407 217.353481 554.799407ZM217.353481 770.901333 806.532741 770.901333C811.178667 770.901333 815.047111 767.089778 815.047111 762.405926L815.047111 696.699259C815.104 696.263111 815.104 695.940741 815.104 695.542519 815.104 690.87763 811.33037 687.066074 806.760296 687.066074L217.353481 687.066074C212.612741 687.066074 208.839111 690.87763 208.839111 695.542519L208.839111 762.462815C208.839111 767.089778 212.612741 770.901333 217.353481 770.901333L217.353481 770.901333 217.353481 770.901333Z" fill="rgb(68,68,68)" transform="translate(728.078125, 1012.734375) scale(0.013671875)"></path></g><g id="9913d113312a"><rect x="464.8125" y="1115.015625" rx="1px" ry="1px" width="81" height="26" style="fill: transparent; stroke:none;"></rect><g><text text-anchor="start" align="top" anchor="start" font-family="微软雅黑" font-size="13px" font-weight="normal" fill="rgb(68, 68, 68)"><tspan x="473.8125" y="1131.45625"><tspan>Consumer</tspan></tspan></text></g></g><g id="45bca3756bc9"><rect x="575.40625" y="1043.734375" rx="1px" ry="1px" width="103" height="26" style="fill: transparent; stroke:none;"></rect><g><text text-anchor="start" align="top" anchor="start" font-family="微软雅黑" font-size="13px" font-weight="normal" fill="rgb(68, 68, 68)"><tspan x="584.40625" y="1060.175"><tspan>SvcConsumer</tspan></tspan></text></g></g><g id="1fafacbec6fd"><rect x="575.40625" y="1079.375" rx="1px" ry="1px" width="109" height="26" style="fill: transparent; stroke:none;"></rect><g><text text-anchor="start" align="top" anchor="start" font-family="微软雅黑" font-size="13px" font-weight="normal" fill="rgb(68, 68, 68)"><tspan x="584.40625" y="1095.815625"><tspan>DataConsumer</tspan></tspan></text></g></g><g id="84548918152a"><rect x="575.40625" y="1115.015625" rx="1px" ry="1px" width="108" height="26" style="fill: transparent; stroke:none;"></rect><g><text text-anchor="start" align="top" anchor="start" font-family="微软雅黑" font-size="13px" font-weight="normal" fill="rgb(68, 68, 68)"><tspan x="584.40625" y="1131.45625"><tspan>PipeConsumer</tspan></tspan></text></g></g><g id="f6506aeff2b6"><rect x="575.40625" y="1150.65625" rx="1px" ry="1px" width="122" height="26" style="fill: transparent; stroke:none;"></rect><g><text text-anchor="start" align="top" anchor="start" font-family="微软雅黑" font-size="13px" font-weight="normal" fill="rgb(68, 68, 68)"><tspan x="584.40625" y="1167.096875"><tspan>SimpleConsumer</tspan></tspan></text></g></g><g id="6ef64cb9e12b"><rect x="575.40625" y="1186.296875" rx="1px" ry="1px" width="141" height="26" style="fill: transparent; stroke:none;"></rect><g><text text-anchor="start" align="top" anchor="start" font-family="微软雅黑" font-size="13px" font-weight="normal" fill="rgb(68, 68, 68)"><tspan x="584.40625" y="1202.7375"><tspan>SimulcastConsumer</tspan></tspan></text></g></g><g id="bcb86a31f876"><rect x="464.8125" y="1221.9375" rx="1px" ry="1px" width="74" height="26" style="fill: transparent; stroke:none;"></rect><g><text text-anchor="start" align="top" anchor="start" font-family="微软雅黑" font-size="13px" font-weight="normal" fill="rgb(68, 68, 68)"><tspan x="473.8125" y="1238.378125"><tspan>Producer</tspan></tspan></text></g></g><g id="e6ab04dfe615"><rect x="568.59375" y="1221.9375" rx="1px" ry="1px" width="103" height="26" style="fill: transparent; stroke:none;"></rect><g><text text-anchor="start" align="top" anchor="start" font-family="微软雅黑" font-size="13px" font-weight="normal" fill="rgb(68, 68, 68)"><tspan x="577.59375" y="1238.378125"><tspan>DataProducer</tspan></tspan></text></g></g><g id="caf496eb4068"><rect x="386.8125" y="1257.578125" rx="1px" ry="1px" width="70" height="26" style="fill: transparent; stroke:none;"></rect><g><text text-anchor="start" align="top" anchor="start" font-family="微软雅黑" font-size="13px" font-weight="normal" fill="rgb(68, 68, 68)"><tspan x="395.8125" y="1274.01875"><tspan>Utils</tspan></tspan></text></g><path d="M906.372741 0.018963C960.777481 0.075852 1005.131852 44.126815 1005.131852 98.49363L1005.131852 98.49363 1005.131852 98.49363 1005.131852 925.525333C1005.131852 979.892148 960.777481 1024 906.221037 1024L117.835852 1024C63.16563 1024 18.868148 979.892148 18.868148 925.525333L18.868148 98.49363C18.868148 44.126815 63.222519 0.018963 117.835852 0.018963M925.980444 74.088296 93.790815 74.088296 93.790815 945.170963 925.866667 945.170963 925.904593 945.170963 925.904593 74.088296 925.980444 74.088296 925.980444 74.088296ZM217.353481 338.640593 449.744593 338.640593C454.428444 338.640593 458.258963 334.829037 458.258963 330.145185L458.258963 264.438519 458.258963 263.338667C458.258963 258.673778 454.428444 254.748444 449.85837 254.748444L217.353481 254.748444C212.612741 254.748444 208.839111 258.673778 208.839111 263.338667L208.839111 330.145185C208.839111 334.829037 212.612741 338.640593 217.353481 338.640593L217.353481 338.640593 217.353481 338.640593ZM217.353481 554.799407 673.526519 554.799407C678.229333 554.799407 682.040889 550.987852 682.040889 546.304L682.040889 480.57837C682.154667 480.161185 682.154667 479.819852 682.154667 479.440593 682.154667 474.775704 678.381037 470.964148 673.754074 470.964148L217.353481 470.964148C212.612741 470.964148 208.839111 474.775704 208.839111 479.440593L208.839111 546.360889C208.839111 550.930963 212.612741 554.799407 217.353481 554.799407L217.353481 554.799407 217.353481 554.799407ZM217.353481 770.901333 806.532741 770.901333C811.178667 770.901333 815.047111 767.089778 815.047111 762.405926L815.047111 696.699259C815.104 696.263111 815.104 695.940741 815.104 695.542519 815.104 690.87763 811.33037 687.066074 806.760296 687.066074L217.353481 687.066074C212.612741 687.066074 208.839111 690.87763 208.839111 695.542519L208.839111 762.462815C208.839111 767.089778 212.612741 770.901333 217.353481 770.901333L217.353481 770.901333 217.353481 770.901333Z" fill="rgb(68,68,68)" transform="translate(431.8125, 1262.21875) scale(0.013671875)"></path></g><g id="cea70ff03767"><rect x="386.8125" y="1364.5" rx="1px" ry="1px" width="71" height="26" style="fill: transparent; stroke:none;"></rect><g><text text-anchor="start" align="top" anchor="start" font-family="微软雅黑" font-size="13px" font-weight="normal" fill="rgb(68, 68, 68)"><tspan x="395.8125" y="1380.940625"><tspan>Deps</tspan></tspan></text></g><path d="M906.372741 0.018963C960.777481 0.075852 1005.131852 44.126815 1005.131852 98.49363L1005.131852 98.49363 1005.131852 98.49363 1005.131852 925.525333C1005.131852 979.892148 960.777481 1024 906.221037 1024L117.835852 1024C63.16563 1024 18.868148 979.892148 18.868148 925.525333L18.868148 98.49363C18.868148 44.126815 63.222519 0.018963 117.835852 0.018963M925.980444 74.088296 93.790815 74.088296 93.790815 945.170963 925.866667 945.170963 925.904593 945.170963 925.904593 74.088296 925.980444 74.088296 925.980444 74.088296ZM217.353481 338.640593 449.744593 338.640593C454.428444 338.640593 458.258963 334.829037 458.258963 330.145185L458.258963 264.438519 458.258963 263.338667C458.258963 258.673778 454.428444 254.748444 449.85837 254.748444L217.353481 254.748444C212.612741 254.748444 208.839111 258.673778 208.839111 263.338667L208.839111 330.145185C208.839111 334.829037 212.612741 338.640593 217.353481 338.640593L217.353481 338.640593 217.353481 338.640593ZM217.353481 554.799407 673.526519 554.799407C678.229333 554.799407 682.040889 550.987852 682.040889 546.304L682.040889 480.57837C682.154667 480.161185 682.154667 479.819852 682.154667 479.440593 682.154667 474.775704 678.381037 470.964148 673.754074 470.964148L217.353481 470.964148C212.612741 470.964148 208.839111 474.775704 208.839111 479.440593L208.839111 546.360889C208.839111 550.930963 212.612741 554.799407 217.353481 554.799407L217.353481 554.799407 217.353481 554.799407ZM217.353481 770.901333 806.532741 770.901333C811.178667 770.901333 815.047111 767.089778 815.047111 762.405926L815.047111 696.699259C815.104 696.263111 815.104 695.940741 815.104 695.542519 815.104 690.87763 811.33037 687.066074 806.760296 687.066074L217.353481 687.066074C212.612741 687.066074 208.839111 690.87763 208.839111 695.542519L208.839111 762.462815C208.839111 767.089778 212.612741 770.901333 217.353481 770.901333L217.353481 770.901333 217.353481 770.901333Z" fill="rgb(68,68,68)" transform="translate(433, 1369.140625) scale(0.013671875)"></path></g><g id="2b2fc179982a"><rect x="488" y="1293.21875" rx="1px" ry="1px" width="67" height="26" style="fill: transparent; stroke:none;"></rect><g><text text-anchor="start" align="top" anchor="start" font-family="微软雅黑" font-size="13px" font-weight="normal" fill="rgb(68, 68, 68)"><tspan x="497" y="1309.659375"><tspan>Openssl</tspan></tspan></text></g></g><g id="e5305205f1d4"><rect x="488" y="1328.859375" rx="1px" ry="1px" width="52" height="26" style="fill: transparent; stroke:none;"></rect><g><text text-anchor="start" align="top" anchor="start" font-family="微软雅黑" font-size="13px" font-weight="normal" fill="rgb(68, 68, 68)"><tspan x="497" y="1345.3"><tspan>SRTP</tspan></tspan></text></g></g><g id="eb76772247ae"><rect x="488" y="1364.5" rx="1px" ry="1px" width="52" height="26" style="fill: transparent; stroke:none;"></rect><g><text text-anchor="start" align="top" anchor="start" font-family="微软雅黑" font-size="13px" font-weight="normal" fill="rgb(68, 68, 68)"><tspan x="497" y="1380.940625"><tspan>SCTP</tspan></tspan></text></g></g><g id="a40f2dacc712"><rect x="488" y="1400.140625" rx="1px" ry="1px" width="72" height="26" style="fill: transparent; stroke:none;"></rect><g><text text-anchor="start" align="top" anchor="start" font-family="微软雅黑" font-size="13px" font-weight="normal" fill="rgb(68, 68, 68)"><tspan x="497" y="1416.58125"><tspan>WebRTC</tspan></tspan></text></g></g><g id="7607bd5c639c"><rect x="488" y="1435.78125" rx="1px" ry="1px" width="55" height="26" style="fill: transparent; stroke:none;"></rect><g><text text-anchor="start" align="top" anchor="start" font-family="微软雅黑" font-size="13px" font-weight="normal" fill="rgb(68, 68, 68)"><tspan x="497" y="1452.221875"><tspan>LibUV</tspan></tspan></text></g></g><g id="774be1ace229"><rect x="254" y="93.109375" rx="5px" ry="5px" width="79" height="42" style="fill: #ffffff; stroke:rgb(157,157,157);stroke-width:1px;"></rect><g><text text-anchor="start" align="top" anchor="start" font-family="微软雅黑" font-size="17px" font-weight="normal" fill="rgb(68, 68, 68)"><tspan x="267" y="121.91875"><tspan>nodejs</tspan></tspan></text></g></g><g id="99f61ebb99ff"><rect x="363.203125" y="30" rx="1px" ry="1px" width="70" height="26" style="fill: transparent; stroke:none;"></rect><g><text text-anchor="start" align="top" anchor="start" font-family="微软雅黑" font-size="13px" font-weight="normal" fill="rgb(68, 68, 68)"><tspan x="372.203125" y="46.440625"><tspan>ortc</tspan></tspan></text></g><path d="M906.372741 0.018963C960.777481 0.075852 1005.131852 44.126815 1005.131852 98.49363L1005.131852 98.49363 1005.131852 98.49363 1005.131852 925.525333C1005.131852 979.892148 960.777481 1024 906.221037 1024L117.835852 1024C63.16563 1024 18.868148 979.892148 18.868148 925.525333L18.868148 98.49363C18.868148 44.126815 63.222519 0.018963 117.835852 0.018963M925.980444 74.088296 93.790815 74.088296 93.790815 945.170963 925.866667 945.170963 925.904593 945.170963 925.904593 74.088296 925.980444 74.088296 925.980444 74.088296ZM217.353481 338.640593 449.744593 338.640593C454.428444 338.640593 458.258963 334.829037 458.258963 330.145185L458.258963 264.438519 458.258963 263.338667C458.258963 258.673778 454.428444 254.748444 449.85837 254.748444L217.353481 254.748444C212.612741 254.748444 208.839111 258.673778 208.839111 263.338667L208.839111 330.145185C208.839111 334.829037 212.612741 338.640593 217.353481 338.640593L217.353481 338.640593 217.353481 338.640593ZM217.353481 554.799407 673.526519 554.799407C678.229333 554.799407 682.040889 550.987852 682.040889 546.304L682.040889 480.57837C682.154667 480.161185 682.154667 479.819852 682.154667 479.440593 682.154667 474.775704 678.381037 470.964148 673.754074 470.964148L217.353481 470.964148C212.612741 470.964148 208.839111 474.775704 208.839111 479.440593L208.839111 546.360889C208.839111 550.930963 212.612741 554.799407 217.353481 554.799407L217.353481 554.799407 217.353481 554.799407ZM217.353481 770.901333 806.532741 770.901333C811.178667 770.901333 815.047111 767.089778 815.047111 762.405926L815.047111 696.699259C815.104 696.263111 815.104 695.940741 815.104 695.542519 815.104 690.87763 811.33037 687.066074 806.760296 687.066074L217.353481 687.066074C212.612741 687.066074 208.839111 690.87763 208.839111 695.542519L208.839111 762.462815C208.839111 767.089778 212.612741 770.901333 217.353481 770.901333L217.353481 770.901333 217.353481 770.901333Z" fill="rgb(68,68,68)" transform="translate(408.203125, 34.640625) scale(0.013671875)"></path></g><g id="2a1bc78f93a0"><rect x="363.203125" y="119.09375" rx="1px" ry="1px" width="101" height="26" style="fill: transparent; stroke:none;"></rect><g><text text-anchor="start" align="top" anchor="start" font-family="微软雅黑" font-size="13px" font-weight="normal" fill="rgb(68, 68, 68)"><tspan x="372.203125" y="135.534375"><tspan>server.run</tspan></tspan></text></g><path d="M906.372741 0.018963C960.777481 0.075852 1005.131852 44.126815 1005.131852 98.49363L1005.131852 98.49363 1005.131852 98.49363 1005.131852 925.525333C1005.131852 979.892148 960.777481 1024 906.221037 1024L117.835852 1024C63.16563 1024 18.868148 979.892148 18.868148 925.525333L18.868148 98.49363C18.868148 44.126815 63.222519 0.018963 117.835852 0.018963M925.980444 74.088296 93.790815 74.088296 93.790815 945.170963 925.866667 945.170963 925.904593 945.170963 925.904593 74.088296 925.980444 74.088296 925.980444 74.088296ZM217.353481 338.640593 449.744593 338.640593C454.428444 338.640593 458.258963 334.829037 458.258963 330.145185L458.258963 264.438519 458.258963 263.338667C458.258963 258.673778 454.428444 254.748444 449.85837 254.748444L217.353481 254.748444C212.612741 254.748444 208.839111 258.673778 208.839111 263.338667L208.839111 330.145185C208.839111 334.829037 212.612741 338.640593 217.353481 338.640593L217.353481 338.640593 217.353481 338.640593ZM217.353481 554.799407 673.526519 554.799407C678.229333 554.799407 682.040889 550.987852 682.040889 546.304L682.040889 480.57837C682.154667 480.161185 682.154667 479.819852 682.154667 479.440593 682.154667 474.775704 678.381037 470.964148 673.754074 470.964148L217.353481 470.964148C212.612741 470.964148 208.839111 474.775704 208.839111 479.440593L208.839111 546.360889C208.839111 550.930963 212.612741 554.799407 217.353481 554.799407L217.353481 554.799407 217.353481 554.799407ZM217.353481 770.901333 806.532741 770.901333C811.178667 770.901333 815.047111 767.089778 815.047111 762.405926L815.047111 696.699259C815.104 696.263111 815.104 695.940741 815.104 695.542519 815.104 690.87763 811.33037 687.066074 806.760296 687.066074L217.353481 687.066074C212.612741 687.066074 208.839111 690.87763 208.839111 695.542519L208.839111 762.462815C208.839111 767.089778 212.612741 770.901333 217.353481 770.901333L217.353481 770.901333 217.353481 770.901333Z" fill="rgb(68,68,68)" transform="translate(439.171875, 123.734375) scale(0.013671875)"></path></g><g id="3b268544901c"><rect x="494.171875" y="65.640625" rx="1px" ry="1px" width="144" height="26" style="fill: transparent; stroke:none;"></rect><g><text text-anchor="start" align="top" anchor="start" font-family="微软雅黑" font-size="13px" font-weight="normal" fill="rgb(68, 68, 68)"><tspan x="503.171875" y="82.08125"><tspan>interactiveServer</tspan></tspan></text></g><path d="M906.372741 0.018963C960.777481 0.075852 1005.131852 44.126815 1005.131852 98.49363L1005.131852 98.49363 1005.131852 98.49363 1005.131852 925.525333C1005.131852 979.892148 960.777481 1024 906.221037 1024L117.835852 1024C63.16563 1024 18.868148 979.892148 18.868148 925.525333L18.868148 98.49363C18.868148 44.126815 63.222519 0.018963 117.835852 0.018963M925.980444 74.088296 93.790815 74.088296 93.790815 945.170963 925.866667 945.170963 925.904593 945.170963 925.904593 74.088296 925.980444 74.088296 925.980444 74.088296ZM217.353481 338.640593 449.744593 338.640593C454.428444 338.640593 458.258963 334.829037 458.258963 330.145185L458.258963 264.438519 458.258963 263.338667C458.258963 258.673778 454.428444 254.748444 449.85837 254.748444L217.353481 254.748444C212.612741 254.748444 208.839111 258.673778 208.839111 263.338667L208.839111 330.145185C208.839111 334.829037 212.612741 338.640593 217.353481 338.640593L217.353481 338.640593 217.353481 338.640593ZM217.353481 554.799407 673.526519 554.799407C678.229333 554.799407 682.040889 550.987852 682.040889 546.304L682.040889 480.57837C682.154667 480.161185 682.154667 479.819852 682.154667 479.440593 682.154667 474.775704 678.381037 470.964148 673.754074 470.964148L217.353481 470.964148C212.612741 470.964148 208.839111 474.775704 208.839111 479.440593L208.839111 546.360889C208.839111 550.930963 212.612741 554.799407 217.353481 554.799407L217.353481 554.799407 217.353481 554.799407ZM217.353481 770.901333 806.532741 770.901333C811.178667 770.901333 815.047111 767.089778 815.047111 762.405926L815.047111 696.699259C815.104 696.263111 815.104 695.940741 815.104 695.542519 815.104 690.87763 811.33037 687.066074 806.760296 687.066074L217.353481 687.066074C212.612741 687.066074 208.839111 690.87763 208.839111 695.542519L208.839111 762.462815C208.839111 767.089778 212.612741 770.901333 217.353481 770.901333L217.353481 770.901333 217.353481 770.901333Z" fill="rgb(68,68,68)" transform="translate(612.96875, 70.28125) scale(0.013671875)"></path></g><g id="0c1e82b32641"><rect x="494.171875" y="101.28125" rx="1px" ry="1px" width="89" height="26" style="fill: transparent; stroke:none;"></rect><g><text text-anchor="start" align="top" anchor="start" font-family="微软雅黑" font-size="13px" font-weight="normal" fill="rgb(68, 68, 68)"><tspan x="503.171875" y="117.721875"><tspan>workers</tspan></tspan></text></g><path d="M906.372741 0.018963C960.777481 0.075852 1005.131852 44.126815 1005.131852 98.49363L1005.131852 98.49363 1005.131852 98.49363 1005.131852 925.525333C1005.131852 979.892148 960.777481 1024 906.221037 1024L117.835852 1024C63.16563 1024 18.868148 979.892148 18.868148 925.525333L18.868148 98.49363C18.868148 44.126815 63.222519 0.018963 117.835852 0.018963M925.980444 74.088296 93.790815 74.088296 93.790815 945.170963 925.866667 945.170963 925.904593 945.170963 925.904593 74.088296 925.980444 74.088296 925.980444 74.088296ZM217.353481 338.640593 449.744593 338.640593C454.428444 338.640593 458.258963 334.829037 458.258963 330.145185L458.258963 264.438519 458.258963 263.338667C458.258963 258.673778 454.428444 254.748444 449.85837 254.748444L217.353481 254.748444C212.612741 254.748444 208.839111 258.673778 208.839111 263.338667L208.839111 330.145185C208.839111 334.829037 212.612741 338.640593 217.353481 338.640593L217.353481 338.640593 217.353481 338.640593ZM217.353481 554.799407 673.526519 554.799407C678.229333 554.799407 682.040889 550.987852 682.040889 546.304L682.040889 480.57837C682.154667 480.161185 682.154667 479.819852 682.154667 479.440593 682.154667 474.775704 678.381037 470.964148 673.754074 470.964148L217.353481 470.964148C212.612741 470.964148 208.839111 474.775704 208.839111 479.440593L208.839111 546.360889C208.839111 550.930963 212.612741 554.799407 217.353481 554.799407L217.353481 554.799407 217.353481 554.799407ZM217.353481 770.901333 806.532741 770.901333C811.178667 770.901333 815.047111 767.089778 815.047111 762.405926L815.047111 696.699259C815.104 696.263111 815.104 695.940741 815.104 695.542519 815.104 690.87763 811.33037 687.066074 806.760296 687.066074L217.353481 687.066074C212.612741 687.066074 208.839111 690.87763 208.839111 695.542519L208.839111 762.462815C208.839111 767.089778 212.612741 770.901333 217.353481 770.901333L217.353481 770.901333 217.353481 770.901333Z" fill="rgb(68,68,68)" transform="translate(557.859375, 105.921875) scale(0.013671875)"></path></g><g id="9b60e55ffe37"><rect x="494.171875" y="136.921875" rx="1px" ry="1px" width="113" height="26" style="fill: transparent; stroke:none;"></rect><g><text text-anchor="start" align="top" anchor="start" font-family="微软雅黑" font-size="13px" font-weight="normal" fill="rgb(68, 68, 68)"><tspan x="503.171875" y="153.3625"><tspan>https server</tspan></tspan></text></g><path d="M906.372741 0.018963C960.777481 0.075852 1005.131852 44.126815 1005.131852 98.49363L1005.131852 98.49363 1005.131852 98.49363 1005.131852 925.525333C1005.131852 979.892148 960.777481 1024 906.221037 1024L117.835852 1024C63.16563 1024 18.868148 979.892148 18.868148 925.525333L18.868148 98.49363C18.868148 44.126815 63.222519 0.018963 117.835852 0.018963M925.980444 74.088296 93.790815 74.088296 93.790815 945.170963 925.866667 945.170963 925.904593 945.170963 925.904593 74.088296 925.980444 74.088296 925.980444 74.088296ZM217.353481 338.640593 449.744593 338.640593C454.428444 338.640593 458.258963 334.829037 458.258963 330.145185L458.258963 264.438519 458.258963 263.338667C458.258963 258.673778 454.428444 254.748444 449.85837 254.748444L217.353481 254.748444C212.612741 254.748444 208.839111 258.673778 208.839111 263.338667L208.839111 330.145185C208.839111 334.829037 212.612741 338.640593 217.353481 338.640593L217.353481 338.640593 217.353481 338.640593ZM217.353481 554.799407 673.526519 554.799407C678.229333 554.799407 682.040889 550.987852 682.040889 546.304L682.040889 480.57837C682.154667 480.161185 682.154667 479.819852 682.154667 479.440593 682.154667 474.775704 678.381037 470.964148 673.754074 470.964148L217.353481 470.964148C212.612741 470.964148 208.839111 474.775704 208.839111 479.440593L208.839111 546.360889C208.839111 550.930963 212.612741 554.799407 217.353481 554.799407L217.353481 554.799407 217.353481 554.799407ZM217.353481 770.901333 806.532741 770.901333C811.178667 770.901333 815.047111 767.089778 815.047111 762.405926L815.047111 696.699259C815.104 696.263111 815.104 695.940741 815.104 695.542519 815.104 690.87763 811.33037 687.066074 806.760296 687.066074L217.353481 687.066074C212.612741 687.066074 208.839111 690.87763 208.839111 695.542519L208.839111 762.462815C208.839111 767.089778 212.612741 770.901333 217.353481 770.901333L217.353481 770.901333 217.353481 770.901333Z" fill="rgb(68,68,68)" transform="translate(582.4375, 141.5625) scale(0.013671875)"></path></g><g id="e8ac2ccfd265"><rect x="637.4375" y="136.921875" rx="1px" ry="1px" width="115" height="26" style="fill: transparent; stroke:none;"></rect><g><text text-anchor="start" align="top" anchor="start" font-family="微软雅黑" font-size="13px" font-weight="normal" fill="rgb(68, 68, 68)"><tspan x="646.4375" y="153.3625"><tspan>express app</tspan></tspan></text></g><path d="M906.372741 0.018963C960.777481 0.075852 1005.131852 44.126815 1005.131852 98.49363L1005.131852 98.49363 1005.131852 98.49363 1005.131852 925.525333C1005.131852 979.892148 960.777481 1024 906.221037 1024L117.835852 1024C63.16563 1024 18.868148 979.892148 18.868148 925.525333L18.868148 98.49363C18.868148 44.126815 63.222519 0.018963 117.835852 0.018963M925.980444 74.088296 93.790815 74.088296 93.790815 945.170963 925.866667 945.170963 925.904593 945.170963 925.904593 74.088296 925.980444 74.088296 925.980444 74.088296ZM217.353481 338.640593 449.744593 338.640593C454.428444 338.640593 458.258963 334.829037 458.258963 330.145185L458.258963 264.438519 458.258963 263.338667C458.258963 258.673778 454.428444 254.748444 449.85837 254.748444L217.353481 254.748444C212.612741 254.748444 208.839111 258.673778 208.839111 263.338667L208.839111 330.145185C208.839111 334.829037 212.612741 338.640593 217.353481 338.640593L217.353481 338.640593 217.353481 338.640593ZM217.353481 554.799407 673.526519 554.799407C678.229333 554.799407 682.040889 550.987852 682.040889 546.304L682.040889 480.57837C682.154667 480.161185 682.154667 479.819852 682.154667 479.440593 682.154667 474.775704 678.381037 470.964148 673.754074 470.964148L217.353481 470.964148C212.612741 470.964148 208.839111 474.775704 208.839111 479.440593L208.839111 546.360889C208.839111 550.930963 212.612741 554.799407 217.353481 554.799407L217.353481 554.799407 217.353481 554.799407ZM217.353481 770.901333 806.532741 770.901333C811.178667 770.901333 815.047111 767.089778 815.047111 762.405926L815.047111 696.699259C815.104 696.263111 815.104 695.940741 815.104 695.542519 815.104 690.87763 811.33037 687.066074 806.760296 687.066074L217.353481 687.066074C212.612741 687.066074 208.839111 690.87763 208.839111 695.542519L208.839111 762.462815C208.839111 767.089778 212.612741 770.901333 217.353481 770.901333L217.353481 770.901333 217.353481 770.901333Z" fill="rgb(68,68,68)" transform="translate(727.40625, 141.5625) scale(0.013671875)"></path></g><g id="d0330a209a85"><rect x="494.171875" y="172.5625" rx="1px" ry="1px" width="84" height="26" style="fill: transparent; stroke:none;"></rect><g><text text-anchor="start" align="top" anchor="start" font-family="微软雅黑" font-size="13px" font-weight="normal" fill="rgb(68, 68, 68)"><tspan x="503.171875" y="189.003125"><tspan>websocket</tspan></tspan></text></g></g><g transform="translate(254, 224)" id="sdjakdjak0"><g id="subline_47e2803952ae" transform="translate(0.5,-0.5)"><path id="line_7c4006649a4b" d="M 103 619 L 121 619 L 121 70 A 4 4 0 0 1 125 66 L 132.8125 66" p="47e2803952ae" stroke="rgb(140,140,140)" fill="none" stroke-linecap="square" stroke-width="1"></path><path id="line_c375410efc0c" d="M 286.8125 66 L 305 66 L 305 17 A 4 4 0 0 1 309 13 L 316.796875 13" p="7c4006649a4b" stroke="rgb(140,140,140)" fill="none" stroke-linecap="square" stroke-width="1"></path><path id="line_2d2268563d7b" d="M 286.8125 66 L 305 66 L 305 79 A 4 4 0 0 0 309 83 L 316.796875 83" p="7c4006649a4b" stroke="rgb(140,140,140)" fill="none" stroke-linecap="square" stroke-width="1"></path><path id="line_27ce19d59ede" d="M 406.796875 83 L 425 83 L 425 52 A 4 4 0 0 1 429 48 L 436.703125 48" p="2d2268563d7b" stroke="rgb(140,140,140)" fill="none" stroke-linecap="square" stroke-width="1"></path><path id="line_189e9659e4f6" d="M 406.796875 83 L 425 83 L 425 97 A 4 4 0 0 0 429 101 L 436.703125 101" p="2d2268563d7b" stroke="rgb(140,140,140)" fill="none" stroke-linecap="square" stroke-width="1"></path><path id="line_6b46f91f40e3" d="M 484.703125 101 L 503 101 L 503 88 A 4 4 0 0 1 507 84 L 514.703125 84" p="189e9659e4f6" stroke="rgb(140,140,140)" fill="none" stroke-linecap="square" stroke-width="1"></path><path id="line_e87074c3c9ef" d="M 484.703125 101 L 503 101 L 503 115 A 4 4 0 0 0 507 119 L 514.703125 119" p="189e9659e4f6" stroke="rgb(140,140,140)" fill="none" stroke-linecap="square" stroke-width="1"></path><path id="line_d7af66eff08d" d="M 103 619 L 121 619 L 121 586 A 4 4 0 0 1 125 582 L 132.8125 582" p="47e2803952ae" stroke="rgb(140,140,140)" fill="none" stroke-linecap="square" stroke-width="1"></path><path id="line_96c6ff170035" d="M 180.8125 582 L 199 582 L 199 194 A 4 4 0 0 1 203 190 L 210.8125 190" p="d7af66eff08d" stroke="rgb(140,140,140)" fill="none" stroke-linecap="square" stroke-width="1"></path><path id="line_370774453c74" d="M 356.8125 190 L 375 190 L 375 159 A 4 4 0 0 1 379 155 L 386.390625 155" p="96c6ff170035" stroke="rgb(140,140,140)" fill="none" stroke-linecap="square" stroke-width="1"></path><path id="line_98df45b5a0bd" d="M 356.8125 190 L 375 190 L 375 190 L 386.390625 190" p="96c6ff170035" stroke="rgb(140,140,140)" fill="none" stroke-linecap="square" stroke-width="1"></path><path id="line_5a3c4c79a6d6" d="M 356.8125 190 L 375 190 L 375 222 A 4 4 0 0 0 379 226 L 386.390625 226" p="96c6ff170035" stroke="rgb(140,140,140)" fill="none" stroke-linecap="square" stroke-width="1"></path><path id="line_89fe40d8519a" d="M 180.8125 582 L 199 582 L 199 266 A 4 4 0 0 1 203 262 L 210.8125 262" p="d7af66eff08d" stroke="rgb(140,140,140)" fill="none" stroke-linecap="square" stroke-width="1"></path><path id="line_5cfffac959da" d="M 285.8125 262 L 304 262 L 304 262 L 315.921875 262" p="89fe40d8519a" stroke="rgb(140,140,140)" fill="none" stroke-linecap="square" stroke-width="1"></path><path id="line_91fa40e5caa8" d="M 180.8125 582 L 199 582 L 199 355 A 4 4 0 0 1 203 351 L 210.8125 351" p="d7af66eff08d" stroke="rgb(140,140,140)" fill="none" stroke-linecap="square" stroke-width="1"></path><path id="line_3d272c0311a7" d="M 288.8125 351 L 307 351 L 307 302 A 4 4 0 0 1 311 298 L 318.359375 298" p="91fa40e5caa8" stroke="rgb(140,140,140)" fill="none" stroke-linecap="square" stroke-width="1"></path><path id="line_bcd22060459d" d="M 288.8125 351 L 307 351 L 307 337 A 4 4 0 0 1 311 333 L 318.359375 333" p="91fa40e5caa8" stroke="rgb(140,140,140)" fill="none" stroke-linecap="square" stroke-width="1"></path><path id="line_7b6f34fa6f56" d="M 288.8125 351 L 307 351 L 307 365 A 4 4 0 0 0 311 369 L 318.359375 369" p="91fa40e5caa8" stroke="rgb(140,140,140)" fill="none" stroke-linecap="square" stroke-width="1"></path><path id="line_3ee2d92c7b28" d="M 288.8125 351 L 307 351 L 307 401 A 4 4 0 0 0 311 405 L 318.359375 405" p="91fa40e5caa8" stroke="rgb(140,140,140)" fill="none" stroke-linecap="square" stroke-width="1"></path><path id="line_dc4ca936bf54" d="M 180.8125 582 L 199 582 L 199 568 A 4 4 0 0 1 203 564 L 210.8125 564" p="d7af66eff08d" stroke="rgb(140,140,140)" fill="none" stroke-linecap="square" stroke-width="1"></path><path id="line_ff0180e7d182" d="M 291.8125 564 L 310 564 L 310 564 L 321.921875 564" p="dc4ca936bf54" stroke="rgb(140,140,140)" fill="none" stroke-linecap="square" stroke-width="1"></path><path id="line_a8267bf7e0bf" d="M 399.921875 564 L 418 564 L 418 515 A 4 4 0 0 1 422 511 L 429.46875 511" p="ff0180e7d182" stroke="rgb(140,140,140)" fill="none" stroke-linecap="square" stroke-width="1"></path><path id="line_f346274412bb" d="M 562.46875 511 L 581 511 L 581 444 A 4 4 0 0 1 585 440 L 592.609375 440" p="a8267bf7e0bf" stroke="rgb(140,140,140)" fill="none" stroke-linecap="square" stroke-width="1"></path><path id="line_b790d6e032ff" d="M 709.609375 440 L 728 440 L 728 440 L 739.3125 440" p="f346274412bb" stroke="rgb(140,140,140)" fill="none" stroke-linecap="square" stroke-width="1"></path><path id="line_0820ad2c496b" d="M 562.46875 511 L 581 511 L 581 525 A 4 4 0 0 0 585 529 L 592.609375 529" p="a8267bf7e0bf" stroke="rgb(140,140,140)" fill="none" stroke-linecap="square" stroke-width="1"></path><path id="line_f5d0d967d392" d="M 660.609375 529 L 679 529 L 679 480 A 4 4 0 0 1 683 476 L 690.515625 476" p="0820ad2c496b" stroke="rgb(140,140,140)" fill="none" stroke-linecap="square" stroke-width="1"></path><path id="line_32b5697d8f55" d="M 660.609375 529 L 679 529 L 679 515 A 4 4 0 0 1 683 511 L 690.515625 511" p="0820ad2c496b" stroke="rgb(140,140,140)" fill="none" stroke-linecap="square" stroke-width="1"></path><path id="line_c39a89d2e771" d="M 660.609375 529 L 679 529 L 679 543 A 4 4 0 0 0 683 547 L 690.515625 547" p="0820ad2c496b" stroke="rgb(140,140,140)" fill="none" stroke-linecap="square" stroke-width="1"></path><path id="line_7b1f4d9bad55" d="M 660.609375 529 L 679 529 L 679 579 A 4 4 0 0 0 683 583 L 690.515625 583" p="0820ad2c496b" stroke="rgb(140,140,140)" fill="none" stroke-linecap="square" stroke-width="1"></path><path id="line_35fa4befddf5" d="M 399.921875 564 L 418 564 L 418 632 A 4 4 0 0 0 422 636 L 429.46875 636" p="ff0180e7d182" stroke="rgb(140,140,140)" fill="none" stroke-linecap="square" stroke-width="1"></path><path id="line_6602cfccdfb8" d="M 561.46875 636 L 580 636 L 580 622 A 4 4 0 0 1 584 618 L 591.1875 618" p="35fa4befddf5" stroke="rgb(140,140,140)" fill="none" stroke-linecap="square" stroke-width="1"></path><path id="line_8327b89eb741" d="M 561.46875 636 L 580 636 L 580 650 A 4 4 0 0 0 584 654 L 591.1875 654" p="35fa4befddf5" stroke="rgb(140,140,140)" fill="none" stroke-linecap="square" stroke-width="1"></path><path id="line_86548e4bceca" d="M 399.921875 564 L 418 564 L 418 686 A 4 4 0 0 0 422 690 L 429.46875 690" p="ff0180e7d182" stroke="rgb(140,140,140)" fill="none" stroke-linecap="square" stroke-width="1"></path><path id="line_1727afd575c8" d="M 180.8125 582 L 199 582 L 199 721 A 4 4 0 0 0 203 725 L 210.8125 725" p="d7af66eff08d" stroke="rgb(140,140,140)" fill="none" stroke-linecap="square" stroke-width="1"></path><path id="line_767c9a2e55c9" d="M 258.8125 725 L 277 725 L 277 725 L 288.8125 725" p="1727afd575c8" stroke="rgb(140,140,140)" fill="none" stroke-linecap="square" stroke-width="1"></path><path id="line_272e64d83b6c" d="M 180.8125 582 L 199 582 L 199 774 A 4 4 0 0 0 203 778 L 210.8125 778" p="d7af66eff08d" stroke="rgb(140,140,140)" fill="none" stroke-linecap="square" stroke-width="1"></path><path id="line_872cb0d7a686" d="M 305.8125 778 L 324 778 L 324 765 A 4 4 0 0 1 328 761 L 336.234375 761" p="272e64d83b6c" stroke="rgb(140,140,140)" fill="none" stroke-linecap="square" stroke-width="1"></path><path id="line_a36fa7307343" d="M 305.8125 778 L 324 778 L 324 793 A 4 4 0 0 0 328 797 L 336.234375 797" p="272e64d83b6c" stroke="rgb(140,140,140)" fill="none" stroke-linecap="square" stroke-width="1"></path><path id="line_9913d113312a" d="M 180.8125 582 L 199 582 L 199 900 A 4 4 0 0 0 203 904 L 210.8125 904" p="d7af66eff08d" stroke="rgb(140,140,140)" fill="none" stroke-linecap="square" stroke-width="1"></path><path id="line_45bca3756bc9" d="M 291.8125 904 L 310 904 L 310 836 A 4 4 0 0 1 314 832 L 321.40625 832" p="9913d113312a" stroke="rgb(140,140,140)" fill="none" stroke-linecap="square" stroke-width="1"></path><path id="line_1fafacbec6fd" d="M 291.8125 904 L 310 904 L 310 872 A 4 4 0 0 1 314 868 L 321.40625 868" p="9913d113312a" stroke="rgb(140,140,140)" fill="none" stroke-linecap="square" stroke-width="1"></path><path id="line_84548918152a" d="M 291.8125 904 L 310 904 L 310 904 L 321.40625 904" p="9913d113312a" stroke="rgb(140,140,140)" fill="none" stroke-linecap="square" stroke-width="1"></path><path id="line_f6506aeff2b6" d="M 291.8125 904 L 310 904 L 310 935 A 4 4 0 0 0 314 939 L 321.40625 939" p="9913d113312a" stroke="rgb(140,140,140)" fill="none" stroke-linecap="square" stroke-width="1"></path><path id="line_6ef64cb9e12b" d="M 291.8125 904 L 310 904 L 310 971 A 4 4 0 0 0 314 975 L 321.40625 975" p="9913d113312a" stroke="rgb(140,140,140)" fill="none" stroke-linecap="square" stroke-width="1"></path><path id="line_bcb86a31f876" d="M 180.8125 582 L 199 582 L 199 1006 A 4 4 0 0 0 203 1010 L 210.8125 1010" p="d7af66eff08d" stroke="rgb(140,140,140)" fill="none" stroke-linecap="square" stroke-width="1"></path><path id="line_e6ab04dfe615" d="M 284.8125 1010 L 303 1010 L 303 1010 L 314.59375 1010" p="bcb86a31f876" stroke="rgb(140,140,140)" fill="none" stroke-linecap="square" stroke-width="1"></path><path id="line_caf496eb4068" d="M 103 619 L 121 619 L 121 1042 A 4 4 0 0 0 125 1046 L 132.8125 1046" p="47e2803952ae" stroke="rgb(140,140,140)" fill="none" stroke-linecap="square" stroke-width="1"></path><path id="line_cea70ff03767" d="M 103 619 L 121 619 L 121 1149 A 4 4 0 0 0 125 1153 L 132.8125 1153" p="47e2803952ae" stroke="rgb(140,140,140)" fill="none" stroke-linecap="square" stroke-width="1"></path><path id="line_2b2fc179982a" d="M 203.8125 1153 L 222 1153 L 222 1086 A 4 4 0 0 1 226 1082 L 234 1082" p="cea70ff03767" stroke="rgb(140,140,140)" fill="none" stroke-linecap="square" stroke-width="1"></path><path id="line_e5305205f1d4" d="M 203.8125 1153 L 222 1153 L 222 1121 A 4 4 0 0 1 226 1117 L 234 1117" p="cea70ff03767" stroke="rgb(140,140,140)" fill="none" stroke-linecap="square" stroke-width="1"></path><path id="line_eb76772247ae" d="M 203.8125 1153 L 222 1153 L 222 1153 L 234 1153" p="cea70ff03767" stroke="rgb(140,140,140)" fill="none" stroke-linecap="square" stroke-width="1"></path><path id="line_a40f2dacc712" d="M 203.8125 1153 L 222 1153 L 222 1185 A 4 4 0 0 0 226 1189 L 234 1189" p="cea70ff03767" stroke="rgb(140,140,140)" fill="none" stroke-linecap="square" stroke-width="1"></path><path id="line_7607bd5c639c" d="M 203.8125 1153 L 222 1153 L 222 1220 A 4 4 0 0 0 226 1224 L 234 1224" p="cea70ff03767" stroke="rgb(140,140,140)" fill="none" stroke-linecap="square" stroke-width="1"></path></g><g transform="translate(0.5,0)"></g><g class="svg-summary-con" transform="translate(0.5,0.5)"></g><g class="svg-boundary-con" transform="translate(0.5,0.5)"></g></g><g transform="translate(254, 30)" id="sdjakdjak1"><g id="subline_774be1ace229" transform="translate(0.5,-0.5)"><path id="line_99f61ebb99ff" d="M 79 84 L 97 84 L 97 17 A 4 4 0 0 1 101 13 L 109.203125 13" p="774be1ace229" stroke="rgb(140,140,140)" fill="none" stroke-linecap="square" stroke-width="1"></path><path id="line_2a1bc78f93a0" d="M 79 84 L 97 84 L 97 98 A 4 4 0 0 0 101 102 L 109.203125 102" p="774be1ace229" stroke="rgb(140,140,140)" fill="none" stroke-linecap="square" stroke-width="1"></path><path id="line_3b268544901c" d="M 210.203125 102 L 229 102 L 229 52 A 4 4 0 0 1 233 48 L 240.171875 48" p="2a1bc78f93a0" stroke="rgb(140,140,140)" fill="none" stroke-linecap="square" stroke-width="1"></path><path id="line_0c1e82b32641" d="M 210.203125 102 L 229 102 L 229 88 A 4 4 0 0 1 233 84 L 240.171875 84" p="2a1bc78f93a0" stroke="rgb(140,140,140)" fill="none" stroke-linecap="square" stroke-width="1"></path><path id="line_9b60e55ffe37" d="M 210.203125 102 L 229 102 L 229 115 A 4 4 0 0 0 233 119 L 240.171875 119" p="2a1bc78f93a0" stroke="rgb(140,140,140)" fill="none" stroke-linecap="square" stroke-width="1"></path><path id="line_e8ac2ccfd265" d="M 353.171875 119 L 372 119 L 372 119 L 383.4375 119" p="9b60e55ffe37" stroke="rgb(140,140,140)" fill="none" stroke-linecap="square" stroke-width="1"></path><path id="line_d0330a209a85" d="M 210.203125 102 L 229 102 L 229 151 A 4 4 0 0 0 233 155 L 240.171875 155" p="2a1bc78f93a0" stroke="rgb(140,140,140)" fill="none" stroke-linecap="square" stroke-width="1"></path></g><g transform="translate(0.5,0)"></g><g class="svg-summary-con" transform="translate(0.5,0.5)"></g><g class="svg-boundary-con" transform="translate(0.5,0.5)"></g></g><g transform="translate(30, 713)" id="sdjakdjak2"><g id="subline_root" transform="translate(0.5,-0.5)"></g><g transform="translate(0.5,0)"></g><g class="svg-summary-con" transform="translate(0.5,0.5)"></g><g class="svg-boundary-con" transform="translate(0.5,0.5)"></g></g><g id="root"><rect x="30" y="713" rx="5px" ry="5px" width="164" height="64" style="fill: #50C28B; stroke:none;"></rect><g><text text-anchor="start" align="top" anchor="start" font-family="微软雅黑" font-size="26px" font-weight="normal" fill="rgb(255, 255, 255)"><tspan x="45" y="758.38125"><tspan>mediasoup</tspan></tspan></text></g></g></svg>
